<svg width="25" height="26" viewBox="0 0 25 26" fill="none" xmlns="http://www.w3.org/2000/svg">
<g clip-path="url(#clip0_161_56)">
<path d="M12.5 2.26289C15.8398 2.26289 16.2354 2.27762 17.5488 2.33652C18.7695 2.39052 19.4287 2.59668 19.8682 2.76848C20.4492 2.99428 20.8691 3.26917 21.3037 3.70604C21.7432 4.14782 22.0117 4.56505 22.2363 5.14918C22.4072 5.59096 22.6123 6.25854 22.666 7.48079C22.7246 8.80613 22.7393 9.20373 22.7393 12.5563C22.7393 15.9139 22.7246 16.3115 22.666 17.6319C22.6123 18.8591 22.4072 19.5217 22.2363 19.9635C22.0117 20.5476 21.7383 20.9698 21.3037 21.4067C20.8643 21.8484 20.4492 22.1184 19.8682 22.3442C19.4287 22.516 18.7646 22.7222 17.5488 22.7762C16.2305 22.8351 15.835 22.8498 12.5 22.8498C9.16016 22.8498 8.76465 22.8351 7.45117 22.7762C6.23047 22.7222 5.57129 22.516 5.13184 22.3442C4.55078 22.1184 4.13086 21.8435 3.69629 21.4067C3.25684 20.9649 2.98828 20.5476 2.76367 19.9635C2.59277 19.5217 2.3877 18.8542 2.33398 17.6319C2.27539 16.3066 2.26074 15.909 2.26074 12.5563C2.26074 9.19882 2.27539 8.80122 2.33398 7.48079C2.3877 6.25363 2.59277 5.59096 2.76367 5.14918C2.98828 4.56505 3.26172 4.14291 3.69629 3.70604C4.13574 3.26426 4.55078 2.99428 5.13184 2.76848C5.57129 2.59668 6.23535 2.39052 7.45117 2.33652C8.76465 2.27762 9.16016 2.26289 12.5 2.26289ZM12.5 0C9.10645 0 8.68164 0.014726 7.34863 0.0736299C6.02051 0.132534 5.10742 0.348515 4.31641 0.65776C3.49121 0.981731 2.79297 1.40878 2.09961 2.11072C1.40137 2.80775 0.976562 3.50969 0.654297 4.33434C0.34668 5.13446 0.131836 6.04747 0.0732422 7.38262C0.0146484 8.72759 0 9.15465 0 12.5662C0 15.9777 0.0146484 16.4047 0.0732422 17.7448C0.131836 19.08 0.34668 19.9979 0.654297 20.7931C0.976562 21.6226 1.40137 22.3246 2.09961 23.0216C2.79297 23.7186 3.49121 24.1506 4.31152 24.4697C5.10742 24.7789 6.01562 24.9949 7.34375 25.0538C8.67676 25.1127 9.10156 25.1274 12.4951 25.1274C15.8887 25.1274 16.3135 25.1127 17.6465 25.0538C18.9746 24.9949 19.8877 24.7789 20.6787 24.4697C21.499 24.1506 22.1973 23.7186 22.8906 23.0216C23.584 22.3246 24.0137 21.6226 24.3311 20.798C24.6387 19.9979 24.8535 19.0849 24.9121 17.7497C24.9707 16.4096 24.9854 15.9826 24.9854 12.5711C24.9854 9.15955 24.9707 8.7325 24.9121 7.39244C24.8535 6.05728 24.6387 5.13936 24.3311 4.34416C24.0234 3.50969 23.5986 2.80775 22.9004 2.11072C22.207 1.41369 21.5088 0.981731 20.6885 0.662669C19.8926 0.353423 18.9844 0.137442 17.6563 0.0785385C16.3184 0.014726 15.8936 0 12.5 0Z" fill="#35322A"/>
<path d="M12.5 6.11133C8.95508 6.11133 6.0791 9.00253 6.0791 12.5662C6.0791 16.1299 8.95508 19.0211 12.5 19.0211C16.0449 19.0211 18.9209 16.1299 18.9209 12.5662C18.9209 9.00253 16.0449 6.11133 12.5 6.11133ZM12.5 16.7533C10.2002 16.7533 8.33496 14.8782 8.33496 12.5662C8.33496 10.2542 10.2002 8.37913 12.5 8.37913C14.7998 8.37913 16.665 10.2542 16.665 12.5662C16.665 14.8782 14.7998 16.7533 12.5 16.7533Z" fill="#35322A"/>
<path d="M20.6738 5.85608C20.6738 6.69055 20 7.36304 19.1748 7.36304C18.3447 7.36304 17.6758 6.68565 17.6758 5.85608C17.6758 5.02161 18.3496 4.34912 19.1748 4.34912C20 4.34912 20.6738 5.02652 20.6738 5.85608Z" fill="#35322A"/>
</g>
<defs>
<clipPath id="clip0_161_56">
<rect width="25" height="25.1323" fill="white"/>
</clipPath>
</defs>
</svg>
