<svg width="21" height="21" viewBox="0 0 21 21" fill="none" xmlns="http://www.w3.org/2000/svg">
<path d="M6.69019 2.625H4.28289C3.36726 2.625 2.625 3.36726 2.625 4.28289C2.625 12.0657 8.93425 18.375 16.7171 18.375C17.6327 18.375 18.375 17.6327 18.375 16.7171V14.3098C18.375 13.5942 17.9393 12.9507 17.2749 12.685L14.9687 11.7625C14.3719 11.5238 13.6923 11.6314 13.1985 12.0429L12.6027 12.5394C11.9074 13.1188 10.885 13.0725 10.245 12.4325L8.56755 10.755C7.92754 10.115 7.88116 9.09261 8.46059 8.39729L8.95706 7.80153C9.36856 7.30773 9.47623 6.62808 9.23751 6.03127L8.31503 3.72507C8.04927 3.06066 7.40578 2.625 6.69019 2.625Z" stroke="#35322A" stroke-width="2" stroke-linecap="round" stroke-linejoin="round"/>
</svg>
