<svg width="24" height="25" viewBox="0 0 24 25" fill="none" xmlns="http://www.w3.org/2000/svg">
<g clip-path="url(#clip0_161_57)">
<path d="M0.0571289 24.127L1.74413 17.9314C0.703129 16.1179 0.156129 14.062 0.157129 11.9539C0.160129 5.36324 5.49513 0 12.0501 0C15.2311 0.00100529 18.2171 1.24656 20.4631 3.50646C22.7081 5.76636 23.9441 8.77018 23.9431 11.965C23.9401 18.5567 18.6051 23.9199 12.0501 23.9199C10.0601 23.9189 8.09913 23.4173 6.36213 22.4643L0.0571289 24.127ZM6.65413 20.2999C8.33013 21.3001 9.93013 21.8993 12.0461 21.9003C17.4941 21.9003 21.9321 17.4428 21.9351 11.963C21.9371 6.47208 17.5201 2.02064 12.0541 2.01863C6.60213 2.01863 2.16713 6.4761 2.16513 11.9549C2.16413 14.1917 2.81613 15.8665 3.91113 17.6188L2.91213 21.2861L6.65413 20.2999ZM18.0411 14.807C17.9671 14.6823 17.7691 14.6079 17.4711 14.4581C17.1741 14.3083 15.7131 13.5855 15.4401 13.486C15.1681 13.3865 14.9701 13.3362 14.7711 13.6358C14.5731 13.9344 14.0031 14.6079 13.8301 14.807C13.6571 15.006 13.4831 15.0311 13.1861 14.8814C12.8891 14.7316 11.9311 14.4169 10.7961 13.3985C9.91313 12.6064 9.31613 11.6282 9.14313 11.3286C8.97013 11.0301 9.12513 10.8682 9.27313 10.7194C9.40713 10.5857 9.57013 10.3706 9.71913 10.1957C9.87013 10.0228 9.91913 9.89812 10.0191 9.69806C10.1181 9.49901 10.0691 9.32409 9.99413 9.1743C9.91913 9.02552 9.32513 7.55478 9.07813 6.95663C8.83613 6.37456 8.59113 6.45298 8.40913 6.44393L7.83913 6.43388C7.64113 6.43388 7.31913 6.50827 7.04713 6.80784C6.77513 7.10742 6.00713 7.82922 6.00713 9.29997C6.00713 10.7707 7.07213 12.1912 7.22013 12.3902C7.36913 12.5893 9.31513 15.6072 12.2961 16.901C13.0051 17.2086 13.5591 17.3926 13.9901 17.5303C14.7021 17.7575 15.3501 17.7253 15.8621 17.6489C16.4331 17.5635 17.6201 16.9261 17.8681 16.2284C18.1161 15.5298 18.1161 14.9316 18.0411 14.807Z" fill="#35322A"/>
</g>
<defs>
<clipPath id="clip0_161_57">
<rect width="24" height="24.127" fill="white"/>
</clipPath>
</defs>
</svg>
